<?xml version="1.0" standalone="no"?>
<!DOCTYPE svg PUBLIC "-//W3C//DTD SVG 20010904//EN"
 "http://www.w3.org/TR/2001/REC-SVG-20010904/DTD/svg10.dtd">
<svg version="1.0" xmlns="http://www.w3.org/2000/svg"
 width="1024.000000pt" height="1024.000000pt" viewBox="0 0 1024.000000 1024.000000"
 preserveAspectRatio="xMidYMid meet">

<g transform="translate(0.000000,1024.000000) scale(0.100000,-0.100000)"
fill="#000000" stroke="none">
<path d="M4993 8708 c-350 -408 -653 -829 -787 -1097 -105 -208 -178 -418
-212 -611 -27 -149 -27 -498 -1 -620 48 -219 160 -477 292 -675 128 -190 392
-482 597 -659 l68 -58 67 58 c38 32 69 59 71 60 2 1 -6 21 -18 44 -82 160
-192 503 -246 767 -82 404 -68 743 51 1230 58 236 226 745 241 730 2 -2 15
-59 29 -128 37 -183 77 -324 170 -609 149 -456 185 -630 185 -895 0 -299 -74
-642 -200 -921 l-28 -62 65 46 c89 62 224 198 305 307 129 172 217 360 282
599 54 195 69 321 63 511 -10 316 -83 542 -302 945 -234 431 -371 719 -484
1019 l-68 181 -140 -162z"/>
<path d="M6520 8306 c0 -3 31 -26 69 -51 145 -96 323 -269 426 -415 293 -416
311 -879 53 -1329 -174 -304 -424 -527 -1076 -962 -343 -229 -464 -318 -639
-473 -264 -232 -512 -551 -651 -838 -152 -312 -206 -541 -206 -868 1 -430 86
-743 384 -1415 54 -121 119 -265 145 -320 26 -55 54 -116 62 -135 l15 -34 14
25 c22 44 284 657 331 779 115 294 196 568 229 775 21 139 30 468 15 592 -19
150 -47 278 -96 436 -42 136 -112 307 -126 307 -4 0 -18 -27 -33 -60 -88 -196
-132 -431 -156 -845 -18 -318 -58 -613 -111 -830 -53 -215 -46 -212 -91 -45
-85 322 -113 552 -105 862 7 286 41 471 129 712 121 333 311 599 593 831 317
261 606 378 1300 525 373 79 536 131 685 215 125 71 236 164 325 275 l28 35
-7 -50 c-52 -369 -352 -753 -736 -941 -224 -110 -365 -140 -850 -179 -275 -22
-497 -73 -640 -145 -106 -54 -105 -55 52 -56 208 -2 224 -5 748 -142 215 -56
313 -72 475 -79 419 -16 791 151 1030 462 205 266 294 705 229 1125 -88 568
-388 1136 -838 1586 -189 188 -268 253 -496 406 -133 89 -480 280 -480 264z"/>
<path d="M3415 8169 c-256 -131 -492 -307 -717 -535 -435 -441 -694 -912 -817
-1484 -73 -343 -44 -775 71 -1046 165 -388 491 -644 943 -740 360 -76 653 -54
1230 92 99 25 252 61 339 79 177 36 176 34 41 78 -154 50 -303 71 -610 87
-257 14 -364 26 -500 56 -304 67 -536 180 -765 372 -204 170 -374 428 -448
677 -33 113 -50 223 -29 191 71 -109 95 -142 157 -209 128 -138 303 -261 489
-343 144 -63 305 -115 606 -194 472 -125 717 -202 1082 -341 246 -93 323 -120
323 -110 0 5 -42 49 -93 97 -296 283 -577 449 -1202 709 -277 115 -516 250
-677 382 -449 366 -530 903 -213 1395 153 236 460 532 781 753 150 104 151
106 9 34z"/>
<path d="M5958 4193 c309 -312 406 -389 624 -493 404 -192 911 -165 1260 67
69 46 211 164 204 170 -2 2 -17 -2 -33 -10 -15 -8 -68 -25 -118 -38 -126 -32
-325 -32 -475 0 -177 39 -296 84 -616 234 -223 105 -333 149 -496 202 -183 59
-316 85 -460 92 l-118 6 228 -230z"/>
<path d="M4110 4214 c-203 -32 -431 -98 -785 -226 -433 -157 -502 -173 -750
-173 -192 0 -260 12 -380 66 -27 13 -54 25 -60 27 -20 9 51 -60 115 -112 85
-68 165 -116 289 -171 410 -182 892 -133 1285 129 143 96 239 176 408 342
l138 134 -88 -1 c-48 -1 -125 -7 -172 -15z"/>
<path d="M1930 3808 c0 -2 22 -55 49 -118 91 -215 245 -471 412 -682 104 -132
406 -433 529 -528 373 -287 794 -501 1237 -626 110 -31 373 -93 396 -94 4 0
-17 49 -47 109 -149 296 -235 585 -267 890 -15 145 -6 465 16 586 18 103 67
300 89 363 9 24 12 40 7 38 -5 -3 -39 -54 -77 -113 -280 -444 -573 -673 -912
-715 -148 -18 -350 19 -517 95 -274 123 -610 406 -847 710 -37 49 -68 87 -68
85z"/>
<path d="M8169 3712 c-332 -423 -634 -662 -933 -737 -225 -57 -468 -35 -674
60 -229 106 -415 282 -625 592 -44 65 -77 107 -73 93 92 -341 130 -661 107
-914 -30 -321 -108 -601 -255 -908 -35 -73 -63 -134 -61 -136 6 -7 329 71 465
112 556 168 1022 448 1429 856 254 256 427 493 575 788 47 93 128 283 124 288
-2 1 -37 -41 -79 -94z"/>
</g>
</svg>
